<?xml version="1.0" encoding="utf-8"?>
<!-- Uploaded to: SVG Repo, www.svgrepo.com, Generator: SVG Repo Mixer Tools -->
<svg width="800px" height="800px" viewBox="0 0 1024 1024" class="icon"  version="1.1" xmlns="http://www.w3.org/2000/svg"><path d="M569.2 304c1-60-20.8-120.4-65.5-166.2 0 0-18.4-9.8-18.4 18.8 0 3.8 18.4 25.1 18.4 25.1 20.9 29.3 33.1 63.2 36.6 97.7h-1c1.1 8.1 1.8 16.3 2 24.6-0.2 8.2-0.8 16.4-2 24.6h1c-3.4 34.6-15.6 68.4-36.6 97.7 0 0-18.4 21.3-18.4 25.1 0 28.7 18.4 18.8 18.4 18.8 44.7-45.8 66.5-106.2 65.5-166.2z" fill="#5E676F" /><path d="M456.8 399.2c-3.8 5.2-7.9 10.3-12.4 15.1 0 0-14.5 9.1-15-15.9-0.2-12.7 15-33.5 15-33.5 6-12 9.9-24.9 11.8-38.1h-1.9c1.7-7.5 2.7-15.1 3-22.8-0.3-7.7-1.3-15.3-3-22.8h1.9c-1.8-13.2-5.8-26.1-11.8-38.1 0 0-15.2-20.7-15-33.5 0.5-25 15-15.9 15-15.9 4.5 4.8 8.7 9.8 12.4 15.1 20.1 27.9 29.6 61.7 28.4 95.2 1.1 33.5-8.4 67.2-28.4 95.2zM121.7 304c-1-60 20.8-120.4 65.5-166.2 0 0 18.4-9.8 18.4 18.8 0 3.8-18.4 25.1-18.4 25.1-20.9 29.3-33.1 63.2-36.6 97.7h1c-1.1 8.1-1.8 16.3-2 24.6 0.2 8.2 0.8 16.4 2 24.6h-1c3.4 34.6 15.6 68.4 36.6 97.7 0 0 18.4 21.3 18.4 25.1 0 28.7-18.4 18.8-18.4 18.8-44.7-45.8-66.5-106.2-65.5-166.2z" fill="#5E676F" /><path d="M234.1 399.2c3.8 5.2 7.9 10.3 12.4 15.1 0 0 14.5 9.1 15-15.9 0.2-12.7-15-33.5-15-33.5-6-12-9.9-24.9-11.8-38.1h1.9c-1.7-7.5-2.7-15.1-3-22.8 0.3-7.7 1.3-15.3 3-22.8h-1.9c1.8-13.2 5.8-26.1 11.8-38.1 0 0 15.2-20.7 15-33.5-0.5-25-15-15.9-15-15.9-4.5 4.8-8.7 9.8-12.4 15.1-20.1 27.9-29.6 61.7-28.4 95.2-1.1 33.5 8.4 67.2 28.4 95.2z" fill="#5E676F" /><path d="M393.3 555.7c3.1-7.1 4.5-15.2 3.8-23.7l-21.3-255.9c-1.3-15.3-14.9-28-30.3-28-15.6 0-29 12.6-30.3 28L293.9 532c-0.7 8.6 0.7 16.6 3.8 23.7h-120c-62 0-112 50.1-112 111.9v83.9c0 61.8 50.1 111.9 112 111.9h671.1c62 0 112-50.1 112-111.9v-83.8c0-61.8-50.1-111.9-112-111.9l-455.5-0.1z" fill="#5E676F" /><path d="M121.6 669.7v83.8c0 30.9 25.1 56 56.1 56h671.1c31 0 56.1-25 56.1-56v-83.8c0-30.9-25.1-56-56.1-56H177.6c-31 0-56 25-56 56z" fill="#FFFFFF" /><path d="M653.1 709.6c0-7.7 6-14 14.1-14h27.7c7.8 0 14.1 6.5 14.1 14 0 7.7-6 14-14.1 14h-27.7c-7.8 0-14.1-6.5-14.1-14zM541.2 709.6c0-7.7 6-14 14.1-14H583c7.8 0 14.1 6.5 14.1 14 0 7.7-6 14-14.1 14h-27.7c-7.7 0-14.1-6.5-14.1-14zM429.4 709.6c0-7.7 6-14 14.1-14h27.7c7.8 0 14.1 6.5 14.1 14 0 7.7-6 14-14.1 14h-27.7c-7.8 0-14.1-6.5-14.1-14zM317.5 709.6c0-7.7 6-14 14.1-14h27.7c7.8 0 14.1 6.5 14.1 14 0 7.7-6 14-14.1 14h-27.7c-7.8 0-14.1-6.5-14.1-14zM765 709.6c0-23.2 18.6-42 42-42 23.2 0 42 18.6 42 42 0 23.2-18.6 42-42 42-23.2-0.1-42-18.7-42-42zM219.6 667.6c23.2 0 42 18.6 42 42 0 23.2-18.6 42-42 42-23.2 0-42-18.6-42-42 0-23.2 18.6-42 42-42z" fill="#5E676F" /><path d="M219.6 723.6c7.7 0 14-6.3 14-14s-6.3-14-14-14-14 6.3-14 14 6.3 14 14 14zM807 723.6c7.7 0 14-6.3 14-14s-6.3-14-14-14-14 6.3-14 14 6.2 14 14 14z" fill="#FFFFFF" /></svg>