<?xml version="1.0" encoding="utf-8"?>
<!-- Generator: Adobe Illustrator 27.1.1, SVG Export Plug-In . SVG Version: 6.00 Build 0)  -->
<svg version="1.1" id="Layer_1" xmlns="http://www.w3.org/2000/svg" xmlns:xlink="http://www.w3.org/1999/xlink" x="0px" y="0px"
	 viewBox="0 0 48 48" style="enable-background:new 0 0 48 48;" xml:space="preserve">
<style type="text/css">
	.st0{fill:#FFFFFF;}
</style>
<path class="st0" d="M12,44v-8.6c-1.9-1.7-3.4-3.8-4.4-6.1S6,24.6,6,22c0-5,1.8-9.2,5.2-12.8S19,4,24,4c4.2,0,7.9,1.2,11.1,3.7
	s5.3,5.6,6.3,9.6l2.8,10.9c0.1,0.5,0,0.9-0.2,1.3S43.1,30,42.6,30H38v7c0,0.8-0.3,1.5-0.9,2.1S35.8,40,35,40h-5v4h-3v-7h8V27h5.7
	l-2.2-9c-0.8-3.2-2.6-5.9-5.2-7.9C30.5,8,27.4,7,24,7c-4.2,0-7.7,1.4-10.6,4.3S9,17.7,9,21.9c0,2.1,0.4,4.2,1.3,6.1s2.1,3.6,3.7,5.2
	l0.9,0.9V44H12z M22.5,29.3h3l0.1-2.2c0.4-0.1,0.8-0.2,1.1-0.4c0.3-0.2,0.7-0.5,0.9-0.7l2.1,0.7l1.4-2.4L29.6,23
	c0.2-0.5,0.2-1,0.2-1.5s-0.1-1-0.2-1.5l1.5-1.2l-1.4-2.4l-2.1,0.7c-0.3-0.3-0.6-0.5-1-0.7c-0.4-0.2-0.7-0.4-1.1-0.5l-0.1-2.2h-3
	l-0.1,2.2c-0.4,0.1-0.7,0.2-1.1,0.5c-0.4,0.2-0.7,0.4-1,0.7l-2.1-0.7l-1.4,2.4l1.5,1.2c-0.2,0.5-0.2,1-0.2,1.5s0.1,1,0.2,1.5
	l-1.5,1.2l1.4,2.4l2.1-0.7c0.3,0.3,0.6,0.5,0.9,0.7c0.3,0.2,0.7,0.4,1.1,0.4L22.5,29.3z M24,25.1c-1,0-1.8-0.3-2.5-1
	c-0.7-0.7-1-1.5-1-2.5c0-1,0.3-1.8,1-2.5c0.7-0.7,1.5-1,2.5-1c1,0,1.8,0.3,2.5,1c0.7,0.7,1,1.5,1,2.5c0,1-0.3,1.8-1,2.5
	S24.9,25.1,24,25.1z"/>
</svg>
