<?xml version="1.0" encoding="utf-8"?>
<!-- Generator: Adobe Illustrator 27.1.1, SVG Export Plug-In . SVG Version: 6.00 Build 0)  -->
<svg version="1.1" id="Layer_1" xmlns="http://www.w3.org/2000/svg" xmlns:xlink="http://www.w3.org/1999/xlink" x="0px" y="0px"
	 viewBox="0 0 48 48" style="enable-background:new 0 0 48 48;" xml:space="preserve">
<style type="text/css">
	.st0{fill:#FFFFFF;}
</style>
<path class="st0" d="M12.6,40c-2.9,0-5.4-1-7.5-3.1c-2-2-3.1-4.5-3.1-7.5c0-2.6,0.8-4.9,2.5-6.9s3.8-3.2,6.4-3.5
	c0.7-3.2,2.2-5.9,4.7-7.9s5.3-3.1,8.6-3.1c3.7,0,6.9,1.4,9.4,4.1s3.9,6,3.9,9.8v1.2c2.4-0.1,4.4,0.7,6.1,2.3
	c1.7,1.6,2.5,3.7,2.5,6.1c0,2.3-0.8,4.3-2.5,6s-3.6,2.5-6,2.5H12.6z M12.6,37h25c1.5,0,2.8-0.5,3.8-1.6s1.6-2.3,1.6-3.9
	c0-1.5-0.5-2.8-1.6-3.9s-2.3-1.6-3.8-1.6h-3.1v-4.2c0-3-1-5.6-3-7.7s-4.5-3.2-7.5-3.2c-2.9,0-5.4,1.1-7.5,3.1s-3.1,4.7-3.1,7.7h-0.9
	c-2.1,0-3.8,0.7-5.2,2.2C5.7,25.5,5,27.3,5,29.5c0,2.1,0.7,3.9,2.2,5.3S10.4,37,12.6,37z"/>
</svg>
