<?xml version="1.0" encoding="utf-8"?>
<!-- Generator: Adobe Illustrator 27.1.1, SVG Export Plug-In . SVG Version: 6.00 Build 0)  -->
<svg version="1.1" id="Layer_1" xmlns="http://www.w3.org/2000/svg" xmlns:xlink="http://www.w3.org/1999/xlink" x="0px" y="0px"
	 viewBox="0 0 48 48" style="enable-background:new 0 0 48 48;" xml:space="preserve">
<style type="text/css">
	.st0{fill:#FFFFFF;}
</style>
<path class="st0" d="M28.5,40v-3h6c0.7,0,1.3-0.2,1.8-0.7s0.7-1.1,0.7-1.8v-5c0-1.2,0.4-2.3,1.1-3.3c0.8-1,1.7-1.6,2.9-2v-0.4
	c-1.2-0.3-2.1-1-2.9-2S37,19.7,37,18.5v-5c0-0.7-0.2-1.3-0.7-1.8c-0.5-0.5-1.1-0.7-1.8-0.7h-6V8h6c1.5,0,2.8,0.5,3.9,1.6
	S40,12,40,13.5v5c0,0.7,0.2,1.3,0.7,1.8s1.1,0.7,1.8,0.7H44v6h-1.5c-0.7,0-1.3,0.2-1.8,0.7S40,28.8,40,29.5v5c0,1.5-0.5,2.8-1.6,3.9
	S36,40,34.5,40H28.5z M13.5,40c-1.5,0-2.8-0.5-3.9-1.6S8,36,8,34.5v-5c0-0.7-0.2-1.3-0.7-1.8S6.2,27,5.5,27H4v-6h1.5
	c0.7,0,1.3-0.2,1.8-0.7S8,19.2,8,18.5v-5c0-1.5,0.5-2.8,1.6-3.9S12,8,13.5,8h6v3h-6c-0.7,0-1.3,0.2-1.8,0.7
	c-0.5,0.5-0.7,1.1-0.7,1.8v5c0,1.2-0.4,2.3-1.1,3.3s-1.7,1.6-2.9,2v0.4c1.2,0.4,2.1,1,2.9,2s1.1,2.1,1.1,3.3v5
	c0,0.7,0.2,1.3,0.7,1.8c0.5,0.5,1.1,0.7,1.8,0.7h6v3H13.5z"/>
</svg>
