<?xml version="1.0" encoding="utf-8"?>
<!-- Generator: Adobe Illustrator 27.1.1, SVG Export Plug-In . SVG Version: 6.00 Build 0)  -->
<svg version="1.1" id="Layer_1" xmlns="http://www.w3.org/2000/svg" xmlns:xlink="http://www.w3.org/1999/xlink" x="0px" y="0px"
	 viewBox="0 0 48 48" style="enable-background:new 0 0 48 48;" xml:space="preserve">
<style type="text/css">
	.st0{fill:#FFFFFF;}
</style>
<path class="st0" d="M23.8,41c0.2,0,0.4,0,0.6-0.1c0.2-0.1,0.4-0.2,0.5-0.3l16.9-16.9c0.4-0.4,0.8-0.9,1-1.5
	c0.2-0.5,0.3-1.1,0.3-1.7s-0.1-1.1-0.3-1.7s-0.5-1.1-1-1.5l-9-9c-0.4-0.4-0.9-0.8-1.5-1C30.6,7.1,30.1,7,29.5,7s-1.1,0.1-1.7,0.3
	c-0.6,0.2-1,0.5-1.5,1l-0.9,0.9l4,4.1c0.4,0.5,0.8,1,1.1,1.6c0.3,0.6,0.5,1.3,0.5,2c0,1.3-0.5,2.4-1.5,3.4s-2.1,1.5-3.4,1.5
	c-0.8,0-1.5-0.1-2.1-0.4s-1.1-0.6-1.5-1.1l-3.6-3.6L10,25.7c-0.2,0.2-0.3,0.3-0.4,0.5c-0.1,0.2-0.1,0.4-0.1,0.6
	c0,0.4,0.1,0.8,0.4,1.1c0.3,0.3,0.6,0.4,1.1,0.4c0.2,0,0.4-0.1,0.6-0.1c0.2-0.1,0.3-0.2,0.5-0.4l6.9-6.9l2.1,2.1l-6.9,6.9
	c-0.2,0.2-0.3,0.4-0.4,0.5c-0.1,0.2-0.1,0.4-0.1,0.6c0,0.4,0.2,0.8,0.4,1.1c0.3,0.3,0.6,0.5,1.1,0.5c0.2,0,0.4,0,0.6-0.1
	c0.2-0.1,0.3-0.2,0.5-0.3l6.9-6.9l2.1,2.1l-6.9,6.8c-0.1,0.1-0.2,0.3-0.3,0.5c-0.1,0.2-0.1,0.4-0.1,0.6c0,0.4,0.1,0.8,0.5,1
	c0.3,0.3,0.7,0.5,1,0.5c0.2,0,0.4,0,0.5-0.1c0.2-0.1,0.3-0.2,0.5-0.3l6.9-6.9l2.1,2.1l-6.9,6.9c-0.2,0.2-0.3,0.4-0.4,0.5
	c-0.1,0.2-0.1,0.4-0.1,0.5c0,0.5,0.1,0.8,0.4,1.1S23.3,41,23.8,41z M23.8,44c-1.1,0-2.1-0.4-3-1.2c-0.9-0.8-1.4-1.8-1.5-3
	c-1.1-0.2-2.1-0.6-2.9-1.4c-0.8-0.8-1.2-1.7-1.4-2.8c-1.1-0.2-2.1-0.6-2.8-1.4s-1.2-1.7-1.4-2.8c-1.2-0.2-2.2-0.7-3.1-1.5
	s-1.2-1.8-1.2-3c0-0.6,0.1-1.1,0.3-1.7s0.5-1.1,1-1.5L19,12.3l5.5,5.5c0.3,0.3,0.6,0.5,0.9,0.6s0.6,0.2,0.9,0.2
	c0.4,0,0.8-0.2,1.2-0.6c0.4-0.4,0.6-0.8,0.6-1.2c0-0.2-0.1-0.4-0.2-0.7c-0.1-0.2-0.3-0.5-0.6-0.8l-7.1-7.1c-0.4-0.4-0.9-0.8-1.5-1
	C18.2,7.1,17.6,7,17,7s-1.1,0.1-1.7,0.3c-0.5,0.2-1,0.5-1.5,1l-7.6,7.6c-0.5,0.5-0.8,1-1,1.5C5.1,17.9,5,18.5,5,19.1
	c0,0.7,0.1,1.3,0.4,1.9c0.3,0.6,0.6,1.2,1,1.7l-2.2,2.1c-0.7-0.7-1.2-1.6-1.6-2.6C2.2,21.2,2,20.1,2,19c0-1,0.2-2,0.6-2.9
	c0.4-0.9,0.9-1.7,1.6-2.4l7.6-7.6c0.7-0.7,1.6-1.3,2.5-1.6S16.1,4,17.1,4s1.9,0.2,2.8,0.5c0.9,0.3,1.7,0.9,2.5,1.6l0.9,0.9l0.9-0.9
	c0.7-0.7,1.6-1.3,2.5-1.6C27.6,4.2,28.6,4,29.5,4c1,0,1.9,0.2,2.8,0.5c0.9,0.3,1.7,0.9,2.5,1.6l9,8.9c0.7,0.7,1.3,1.6,1.7,2.5
	c0.4,0.9,0.5,1.9,0.5,2.9s-0.2,1.9-0.5,2.8c-0.4,0.9-0.9,1.7-1.7,2.5L27,42.7c-0.4,0.4-0.9,0.8-1.5,1C24.9,43.9,24.4,44,23.8,44z"/>
</svg>
