<?xml version="1.0" encoding="utf-8"?>
<!-- Generator: Adobe Illustrator 27.1.1, SVG Export Plug-In . SVG Version: 6.00 Build 0)  -->
<svg version="1.1" id="Layer_1" xmlns="http://www.w3.org/2000/svg" xmlns:xlink="http://www.w3.org/1999/xlink" x="0px" y="0px"
	 viewBox="0 0 48 48" style="enable-background:new 0 0 48 48;" xml:space="preserve">
<style type="text/css">
	.st0{fill:#FFFFFF;}
</style>
<path class="st0" d="M10.6,37c1.6,0,2.9-0.5,3.9-1.6c1-1,1.6-2.4,1.6-3.9c0-0.9-0.2-1.7-0.6-2.5c-0.4-0.8-1-1.5-1.8-2l-1.6-1V12.5
	c0-0.5-0.1-0.8-0.4-1.1C11.4,11.1,11,11,10.5,11c-0.4,0-0.8,0.1-1.1,0.4C9.2,11.7,9,12,9,12.5v13.4l-1.6,1c-0.8,0.6-1.4,1.2-1.8,2
	C5.2,29.8,5,30.6,5,31.5c0,1.5,0.5,2.8,1.6,3.9S9,37,10.6,37z M10.6,40c-2.4,0-4.4-0.8-6.1-2.5c-1.6-1.6-2.5-3.7-2.5-6
	c0-1.5,0.4-2.9,1.1-4.1s1.7-2.2,2.9-3V12.5c0-1.3,0.4-2.3,1.3-3.2C8.2,8.4,9.3,8,10.6,8s2.3,0.4,3.2,1.3s1.3,1.9,1.3,3.2v11.9
	c1.2,0.8,2.2,1.8,2.9,3s1.1,2.6,1.1,4.1c0,2.4-0.8,4.4-2.5,6C14.9,39.2,12.9,40,10.6,40z M27.5,30c-1.5-1.1-2.8-2.5-3.9-4.2
	C22.6,24.1,22,22.2,22,20c0-3.3,1.2-6.1,3.5-8.5S30.7,8,34,8c3.4,0,6.2,1.2,8.5,3.5c2.3,2.3,3.5,5.2,3.5,8.5c0,2.2-0.5,4.1-1.7,5.8
	c-1.1,1.7-2.4,3.1-3.9,4.2H27.5z M28.6,27h10.8c1-0.8,1.8-1.8,2.5-3.1S43,21.3,43,20c0-2.5-0.9-4.6-2.6-6.4S36.5,11,34,11
	c-2.5,0-4.6,0.9-6.4,2.6C25.9,15.4,25,17.5,25,20c0,1.3,0.4,2.6,1,3.9C26.8,25.2,27.6,26.2,28.6,27z M34,40c-0.6,0-1.1-0.2-1.6-0.6
	C32,39,31.7,38.6,31.5,38h4.9c-0.1,0.6-0.4,1-0.9,1.4C35.1,39.8,34.6,40,34,40z M28.5,36v-3h11v3H28.5z"/>
</svg>
