<?xml version="1.0" encoding="utf-8"?>
<!-- Generator: Adobe Illustrator 27.1.1, SVG Export Plug-In . SVG Version: 6.00 Build 0)  -->
<svg version="1.1" id="Layer_1" xmlns="http://www.w3.org/2000/svg" xmlns:xlink="http://www.w3.org/1999/xlink" x="0px" y="0px"
	 viewBox="0 0 48 48" style="enable-background:new 0 0 48 48;" xml:space="preserve">
<style type="text/css">
	.st0{fill:#FFFFFF;}
</style>
<path class="st0" d="M30.6,42l-13.1-4.7l-9,3.6c-0.6,0.3-1.1,0.3-1.7,0C6.3,40.5,6,40,6,39.3V11.4c0-0.4,0.1-0.8,0.4-1.1
	s0.6-0.6,1-0.8L17.5,6l13.1,4.6l8.9-3.6c0.6-0.3,1.1-0.2,1.7,0.1C41.7,7.4,42,7.9,42,8.6v28.2c0,0.4-0.1,0.7-0.4,1
	c-0.2,0.3-0.6,0.5-0.9,0.6L30.6,42z M28.9,38.2V13l-9.8-3.3V35L28.9,38.2z M31.9,38.2l7.1-2.3V10.3L31.9,13V38.2z M9,37.7l7.1-2.7
	V9.7L9,12.1V37.7z M31.9,13v25.2V13z M16.1,9.7V35V9.7z"/>
</svg>
