<?xml version="1.0" encoding="utf-8"?>
<!-- Generator: Adobe Illustrator 27.1.1, SVG Export Plug-In . SVG Version: 6.00 Build 0)  -->
<svg version="1.1" id="Layer_1" xmlns="http://www.w3.org/2000/svg" xmlns:xlink="http://www.w3.org/1999/xlink" x="0px" y="0px"
	 viewBox="0 0 48 48" style="enable-background:new 0 0 48 48;" xml:space="preserve">
<style type="text/css">
	.st0{fill:#FFFFFF;}
</style>
<path class="st0" d="M23.2,2c3,0,5.6,1.1,7.8,3.2s3.2,4.7,3.2,7.7c0,1.7-0.4,3.4-1.1,4.9c-0.8,1.5-1.8,2.8-3.2,3.9h-1.7v-2.5
	c1-0.8,1.7-1.7,2.2-2.8s0.8-2.3,0.8-3.5c0-2.2-0.8-4.1-2.4-5.6C27.3,5.8,25.4,5,23.2,5c-2.2,0-4.1,0.8-5.6,2.3
	c-1.6,1.5-2.4,3.4-2.4,5.6c0,1.2,0.3,2.4,0.8,3.5c0.5,1.1,1.3,2,2.2,2.8v3.6c-1.9-1-3.3-2.3-4.4-4.1s-1.6-3.7-1.6-5.8
	c0-3,1.1-5.6,3.2-7.7S20.2,2,23.2,2z M21.4,44c-0.6,0-1.1-0.1-1.6-0.3s-0.9-0.5-1.3-0.9L8.1,32.5l2.8-2.9c0.5-0.5,1-0.8,1.6-1.1
	c0.6-0.2,1.2-0.3,1.8-0.1l3.9,0.9V13c0-1.4,0.5-2.6,1.5-3.6c1-1,2.1-1.4,3.5-1.4s2.6,0.5,3.5,1.4c1,1,1.5,2.1,1.5,3.6v8.6h1.3
	c0.2,0,0.3,0,0.5,0.1s0.3,0.1,0.5,0.2l7.4,3.6c0.8,0.4,1.4,1,1.8,1.8c0.4,0.8,0.5,1.7,0.3,2.5l-1.8,10.9c-0.2,1-0.6,1.8-1.4,2.4
	C36,43.7,35.1,44,34.2,44H21.4z M21,41h14l2.2-12.5L28,24h-2.8V13c0-0.6-0.2-1.1-0.5-1.4c-0.4-0.4-0.9-0.6-1.5-0.6s-1.1,0.2-1.5,0.6
	c-0.4,0.4-0.5,0.9-0.5,1.4v20l-7.7-1.6l-1.1,1.1L21,41z M35,41H21H35z"/>
</svg>
