<?xml version="1.0" encoding="utf-8"?>
<!-- Generator: Adobe Illustrator 27.1.1, SVG Export Plug-In . SVG Version: 6.00 Build 0)  -->
<svg version="1.1" id="Layer_1" xmlns="http://www.w3.org/2000/svg" xmlns:xlink="http://www.w3.org/1999/xlink" x="0px" y="0px"
	 viewBox="0 0 48 48" style="enable-background:new 0 0 48 48;" xml:space="preserve">
<style type="text/css">
	.st0{fill:#FFFFFF;}
</style>
<path class="st0" d="M21.8,30.6l11.4-11.4l-2.1-2l-9.1,9.1l-5-5.1l-2.2,2.2L21.8,30.6z M24,44c-4.7-1.2-8.5-3.9-11.5-8.1
	S8,26.9,8,21.9V9.9l16-6l16,6v11.9c0,5.1-1.5,9.7-4.5,14S28.7,42.8,24,44z M24,40.9c3.8-1.3,7-3.7,9.4-7.2S37,26.2,37,21.9v-9.8
	L24,7.2l-13,4.9v9.8c0,4.4,1.2,8.3,3.6,11.8S20.2,39.6,24,40.9z"/>
</svg>
